<svg xmlns="http://www.w3.org/2000/svg" viewBox="0 0 140 120">
  <!-- Background -->
  <rect x="5" y="5" width="130" height="110" rx="8" fill="#faf8f5"/>

  <!-- Window Frame -->
  <rect x="35" y="20" width="70" height="70" rx="2" fill="#d4eaf7" stroke="#8E6545" stroke-width="2"/>

  <!-- Cassette -->
  <rect x="33" y="18" width="74" height="12" rx="3" fill="#8E6545"/>
  <rect x="36" y="20" width="68" height="8" rx="2" fill="#6b4c35"/>

  <!-- Blind Fabric (partially raised) -->
  <rect x="37" y="30" width="66" height="35" fill="#d4c4b0" opacity="0.9"/>
  <line x1="37" y1="38" x2="103" y2="38" stroke="#c4b4a0" stroke-width="0.5"/>
  <line x1="37" y1="46" x2="103" y2="46" stroke="#c4b4a0" stroke-width="0.5"/>
  <line x1="37" y1="54" x2="103" y2="54" stroke="#c4b4a0" stroke-width="0.5"/>

  <!-- Bottom bar with handle grip -->
  <rect x="37" y="62" width="66" height="6" rx="2" fill="#8E6545"/>
  <rect x="60" y="63" width="20" height="4" rx="1" fill="#6b4c35"/>

  <!-- Hand icon pushing/pulling bottom bar -->
  <path d="M70 72 C70 75 72 78 75 78 L85 78 C88 78 90 76 90 73 L90 82 C90 85 88 87 85 87 L75 87 C72 87 70 85 70 82 Z" fill="#f5e6d3" stroke="#d4b896" stroke-width="1.5"/>

  <!-- Up/Down arrows showing spring action -->
  <path d="M115 35 L115 25" stroke="#8E6545" stroke-width="2" marker-end="url(#arrowUp)"/>
  <path d="M115 55 L115 65" stroke="#8E6545" stroke-width="2" marker-end="url(#arrowDown)"/>

  <!-- Spring icon -->
  <path d="M112 38 Q115 40 118 38 Q115 42 112 40 Q115 44 118 42 Q115 48 112 46 Q115 50 118 48" stroke="#8E6545" stroke-width="1.5" fill="none"/>

  <defs>
    <marker id="arrowUp" markerWidth="8" markerHeight="8" refX="4" refY="4" orient="auto">
      <polygon points="0 8, 4 0, 8 8" fill="#8E6545"/>
    </marker>
    <marker id="arrowDown" markerWidth="8" markerHeight="8" refX="4" refY="4" orient="auto">
      <polygon points="0 0, 4 8, 8 0" fill="#8E6545"/>
    </marker>
  </defs>

  <!-- No cord indicator -->
  <circle cx="25" cy="50" r="10" fill="none" stroke="#e74c3c" stroke-width="2"/>
  <line x1="18" y1="57" x2="32" y2="43" stroke="#e74c3c" stroke-width="2"/>

  <!-- Label -->
  <text x="70" y="108" font-family="Arial, sans-serif" font-size="10" fill="#666" text-anchor="middle" font-weight="500">SPRING LIFT</text>
</svg>
