<svg xmlns="http://www.w3.org/2000/svg" viewBox="0 0 140 110">
  <!-- Background -->
  <rect x="5" y="5" width="130" height="100" rx="8" fill="#faf8f5"/>

  <!-- Wall -->
  <rect x="15" y="15" width="110" height="85" fill="#e8e0d5"/>

  <!-- Window Opening/Frame -->
  <rect x="30" y="25" width="80" height="65" rx="2" fill="#ffffff" stroke="#8E6545" stroke-width="3"/>

  <!-- Window Panes (glass) -->
  <rect x="33" y="28" width="35" height="28" fill="#d4eaf7"/>
  <rect x="72" y="28" width="35" height="28" fill="#d4eaf7"/>
  <rect x="33" y="60" width="35" height="27" fill="#d4eaf7"/>
  <rect x="72" y="60" width="35" height="27" fill="#d4eaf7"/>

  <!-- Blind Cassette INSIDE the frame -->
  <rect x="33" y="28" width="74" height="10" rx="2" fill="#8E6545"/>
  <rect x="35" y="30" width="70" height="6" rx="1" fill="#6b4c35"/>

  <!-- Blind Fabric -->
  <rect x="35" y="38" width="70" height="35" fill="#d4c4b0" opacity="0.9"/>
  <line x1="35" y1="45" x2="105" y2="45" stroke="#c4b4a0" stroke-width="0.5"/>
  <line x1="35" y1="52" x2="105" y2="52" stroke="#c4b4a0" stroke-width="0.5"/>
  <line x1="35" y1="59" x2="105" y2="59" stroke="#c4b4a0" stroke-width="0.5"/>
  <line x1="35" y1="66" x2="105" y2="66" stroke="#c4b4a0" stroke-width="0.5"/>

  <!-- Bottom bar -->
  <rect x="35" y="70" width="70" height="4" rx="1" fill="#8E6545"/>

  <!-- Arrows showing INSIDE mounting -->
  <path d="M25 45 L32 45" stroke="#8E6545" stroke-width="1.5" marker-end="url(#arrowIn)"/>
  <path d="M115 45 L108 45" stroke="#8E6545" stroke-width="1.5" marker-end="url(#arrowIn)"/>

  <defs>
    <marker id="arrowIn" markerWidth="6" markerHeight="6" refX="5" refY="3" orient="auto">
      <polygon points="0 0, 6 3, 0 6" fill="#8E6545"/>
    </marker>
  </defs>

  <!-- Label -->
  <text x="70" y="102" font-family="Arial, sans-serif" font-size="9" fill="#666" text-anchor="middle" font-weight="500">INSIDE FRAME</text>
</svg>
